solid G-188-M
facet normal 1 0 0
  outer loop
    vertex 11.5 -15 1
    vertex 11.5 15 34
    vertex 11.5 -15 34
  endloop
endfacet
facet normal 1 0 0
  outer loop
    vertex 11.5 -15 1
    vertex 11.5 15 1
    vertex 11.5 15 34
  endloop
endfacet
facet normal -1 0 0
  outer loop
    vertex -11.5 15 1
    vertex -11.5 -15 34
    vertex -11.5 15 34
  endloop
endfacet
facet normal -1 0 0
  outer loop
    vertex -11.5 15 1
    vertex -11.5 -15 1
    vertex -11.5 -15 34
  endloop
endfacet
facet normal 0 -1 0
  outer loop
    vertex -11.5 -15 1
    vertex 11.5 -15 34
    vertex -11.5 -15 34
  endloop
endfacet
facet normal 0 -1 0
  outer loop
    vertex -11.5 -15 1
    vertex 11.5 -15 1
    vertex 11.5 -15 34
  endloop
endfacet
facet normal 0 1 0
  outer loop
    vertex 11.5 15 1
    vertex -11.5 15 34
    vertex 11.5 15 34
  endloop
endfacet
facet normal 0 1 0
  outer loop
    vertex 11.5 15 1
    vertex -11.5 15 1
    vertex -11.5 15 34
  endloop
endfacet
facet normal 0 0 -1
  outer loop
    vertex 11.5 -15 1
    vertex -11.5 15 1
    vertex 11.5 15 1
  endloop
endfacet
facet normal 0 0 -1
  outer loop
    vertex 11.5 -15 1
    vertex -11.5 -15 1
    vertex -11.5 15 1
  endloop
endfacet
facet normal 0 0 1
  outer loop
    vertex 11.5 -15 34
    vertex 11.5 15 34
    vertex -11.5 15 34
  endloop
endfacet
facet normal 0 0 1
  outer loop
    vertex 11.5 -15 34
    vertex -11.5 15 34
    vertex -11.5 -15 34
  endloop
endfacet
facet normal 0 0 -1
  outer loop
    vertex -6.9 -15.1 .9
    vertex -9.2 -15.1 .9
    vertex -6.9 15.1 .9
  endloop
endfacet
facet normal 0 0 -1
  outer loop
    vertex -6.9 15.1 .9
    vertex -9.2 -15.1 .9
    vertex -9.2 15.1 .9
  endloop
endfacet
facet normal 0 0 1
  outer loop
    vertex -6.9 -15.1 34.1
    vertex -6.9 15.1 34.1
    vertex -9.2 -15.1 34.1
  endloop
endfacet
facet normal 0 0 1
  outer loop
    vertex -9.2 -15.1 34.1
    vertex -6.9 15.1 34.1
    vertex -9.2 15.1 34.1
  endloop
endfacet
facet normal 0 1 0
  outer loop
    vertex -6.9 15.1 34.1
    vertex -6.9 15.1 .9
    vertex -9.2 15.1 .9
  endloop
endfacet
facet normal 0 1 0
  outer loop
    vertex -6.9 15.1 34.1
    vertex -9.2 15.1 .9
    vertex -9.2 15.1 34.1
  endloop
endfacet
facet normal 0 -1 0
  outer loop
    vertex -6.9 -15.1 .9
    vertex -6.9 -15.1 34.1
    vertex -9.2 -15.1 .9
  endloop
endfacet
facet normal 0 -1 0
  outer loop
    vertex -9.2 -15.1 34.1
    vertex -9.2 -15.1 .9
    vertex -6.9 -15.1 34.1
  endloop
endfacet
facet normal 0 0 -1
  outer loop
    vertex -6.9 -15 1
    vertex -9.2 -15 1
    vertex -6.9 15 1
  endloop
endfacet
facet normal 0 0 -1
  outer loop
    vertex -6.9 15 1
    vertex -9.2 -15 1
    vertex -9.2 15 1
  endloop
endfacet
facet normal 0 0 1
  outer loop
    vertex -6.9 -15 34
    vertex -6.9 15 34
    vertex -9.2 -15 34
  endloop
endfacet
facet normal 0 0 1
  outer loop
    vertex -9.2 -15 34
    vertex -6.9 15 34
    vertex -9.2 15 34
  endloop
endfacet
facet normal 0 1 0
  outer loop
    vertex -6.9 15 34
    vertex -6.9 15 1
    vertex -9.2 15 1
  endloop
endfacet
facet normal 0 1 0
  outer loop
    vertex -6.9 15 34
    vertex -9.2 15 1
    vertex -9.2 15 34
  endloop
endfacet
facet normal 0 -1 0
  outer loop
    vertex -6.9 -15 1
    vertex -6.9 -15 34
    vertex -9.2 -15 1
  endloop
endfacet
facet normal 0 -1 0
  outer loop
    vertex -9.2 -15 34
    vertex -9.2 -15 1
    vertex -6.9 -15 34
  endloop
endfacet
facet normal -1 0 0
  outer loop
    vertex -9.2 15.1 34.1
    vertex -9.2 15 34
    vertex -9.2 -15.1 34.1
  endloop
endfacet
facet normal -1 0 0
  outer loop
    vertex -9.2 15 34
    vertex -9.2 -15 34
    vertex -9.2 -15.1 34.1
  endloop
endfacet
facet normal -1 0 0
  outer loop
    vertex -9.2 -15.1 34.1
    vertex -9.2 -15 34
    vertex -9.2 -15.1 .9
  endloop
endfacet
facet normal -1 0 0
  outer loop
    vertex -9.2 -15 34
    vertex -9.2 -15 1
    vertex -9.2 -15.1 .9
  endloop
endfacet
facet normal -1 0 0
  outer loop
    vertex -9.2 15.1 .9
    vertex -9.2 -15.1 .9
    vertex -9.2 15 1
  endloop
endfacet
facet normal -1 0 0
  outer loop
    vertex -9.2 15 1
    vertex -9.2 -15.1 .9
    vertex -9.2 -15 1
  endloop
endfacet
facet normal -1 0 0
  outer loop
    vertex -9.2 15.1 34.1
    vertex -9.2 15.1 .9
    vertex -9.2 15 34
  endloop
endfacet
facet normal -1 0 0
  outer loop
    vertex -9.2 15 34
    vertex -9.2 15.1 .9
    vertex -9.2 15 1
  endloop
endfacet
facet normal 1 0 0
  outer loop
    vertex -6.9 -15.1 34.1
    vertex -6.9 -15 34
    vertex -6.9 15.1 34.1
  endloop
endfacet
facet normal 1 0 0
  outer loop
    vertex -6.9 -15 34
    vertex -6.9 15 34
    vertex -6.9 15.1 34.1
  endloop
endfacet
facet normal 1 0 0
  outer loop
    vertex -6.9 15.1 34.1
    vertex -6.9 15 34
    vertex -6.9 15.1 .9
  endloop
endfacet
facet normal 1 0 0
  outer loop
    vertex -6.9 15 34
    vertex -6.9 15 1
    vertex -6.9 15.1 .9
  endloop
endfacet
facet normal 1 0 0
  outer loop
    vertex -6.9 -15.1 .9
    vertex -6.9 15.1 .9
    vertex -6.9 -15 1
  endloop
endfacet
facet normal 1 0 0
  outer loop
    vertex -6.9 -15 1
    vertex -6.9 15.1 .9
    vertex -6.9 15 1
  endloop
endfacet
facet normal 1 0 0
  outer loop
    vertex -6.9 -15.1 34.1
    vertex -6.9 -15.1 .9
    vertex -6.9 -15 34
  endloop
endfacet
facet normal 1 0 0
  outer loop
    vertex -6.9 -15 34
    vertex -6.9 -15.1 .9
    vertex -6.9 -15 1
  endloop
endfacet
facet normal 1 0 0
  outer loop
    vertex 31.5 -16 0
    vertex 31.5 16 35
    vertex 31.5 -16 35
  endloop
endfacet
facet normal 1 0 0
  outer loop
    vertex 31.5 -16 0
    vertex 31.5 16 0
    vertex 31.5 16 35
  endloop
endfacet
facet normal -1 0 0
  outer loop
    vertex 11.5 16 0
    vertex 11.5 -16 35
    vertex 11.5 16 35
  endloop
endfacet
facet normal -1 0 0
  outer loop
    vertex 11.5 16 0
    vertex 11.5 -16 0
    vertex 11.5 -16 35
  endloop
endfacet
facet normal 0 -1 0
  outer loop
    vertex 11.5 -16 0
    vertex 31.5 -16 35
    vertex 11.5 -16 35
  endloop
endfacet
facet normal 0 -1 0
  outer loop
    vertex 11.5 -16 0
    vertex 31.5 -16 0
    vertex 31.5 -16 35
  endloop
endfacet
facet normal 0 1 0
  outer loop
    vertex 31.5 16 0
    vertex 11.5 16 35
    vertex 31.5 16 35
  endloop
endfacet
facet normal 0 1 0
  outer loop
    vertex 31.5 16 0
    vertex 11.5 16 0
    vertex 11.5 16 35
  endloop
endfacet
facet normal 0 0 -1
  outer loop
    vertex 31.5 -16 0
    vertex 11.5 16 0
    vertex 31.5 16 0
  endloop
endfacet
facet normal 0 0 -1
  outer loop
    vertex 31.5 -16 0
    vertex 11.5 -16 0
    vertex 11.5 16 0
  endloop
endfacet
facet normal 0 0 1
  outer loop
    vertex 31.5 -16 35
    vertex 31.5 16 35
    vertex 11.5 16 35
  endloop
endfacet
facet normal 0 0 1
  outer loop
    vertex 31.5 -16 35
    vertex 11.5 16 35
    vertex 11.5 -16 35
  endloop
endfacet
facet normal -1 0 0
  outer loop
    vertex -31.5 16 0
    vertex -31.5 -16 35
    vertex -31.5 16 35
  endloop
endfacet
facet normal -1 0 0
  outer loop
    vertex -31.5 16 0
    vertex -31.5 -16 0
    vertex -31.5 -16 35
  endloop
endfacet
facet normal 1 0 0
  outer loop
    vertex -11.5 -16 0
    vertex -11.5 16 35
    vertex -11.5 -16 35
  endloop
endfacet
facet normal 1 0 0
  outer loop
    vertex -11.5 -16 0
    vertex -11.5 16 0
    vertex -11.5 16 35
  endloop
endfacet
facet normal 0 1 0
  outer loop
    vertex -11.5 16 0
    vertex -31.5 16 35
    vertex -11.5 16 35
  endloop
endfacet
facet normal 0 1 0
  outer loop
    vertex -11.5 16 0
    vertex -31.5 16 0
    vertex -31.5 16 35
  endloop
endfacet
facet normal 0 -1 0
  outer loop
    vertex -31.5 -16 0
    vertex -11.5 -16 35
    vertex -31.5 -16 35
  endloop
endfacet
facet normal 0 -1 0
  outer loop
    vertex -31.5 -16 0
    vertex -11.5 -16 0
    vertex -11.5 -16 35
  endloop
endfacet
facet normal 0 0 -1
  outer loop
    vertex -31.5 16 0
    vertex -11.5 -16 0
    vertex -31.5 -16 0
  endloop
endfacet
facet normal 0 0 -1
  outer loop
    vertex -31.5 16 0
    vertex -11.5 16 0
    vertex -11.5 -16 0
  endloop
endfacet
facet normal 0 0 1
  outer loop
    vertex -31.5 16 35
    vertex -31.5 -16 35
    vertex -11.5 -16 35
  endloop
endfacet
facet normal 0 0 1
  outer loop
    vertex -31.5 16 35
    vertex -11.5 -16 35
    vertex -11.5 16 35
  endloop
endfacet
endsolid G-188-M
